# Blender 5.0.0
# www.blender.org
o Cube.011
v -2.237467 -2.627424 -7.309133
v -2.254822 -0.747492 -7.309130
v -2.242601 -2.631284 -12.772989
v -2.268741 0.494025 -12.799792
v 2.253153 -2.627416 -7.309134
v 2.230385 -0.747504 -7.309129
v 2.246670 -2.627430 -12.772989
v 2.212350 0.499713 -12.804600
v -2.251314 -1.687466 -12.772987
v 2.235286 -1.687474 -12.772987
v -2.263499 -0.747506 -16.480656
v 2.219503 -0.747527 -16.480654
v -2.254822 -1.687472 -16.480658
v 2.230887 -1.687483 -16.480656
v -2.245254 -1.784563 -7.315611
v 2.242937 -1.784564 -7.315611
v -2.241030 -1.939726 -4.364788
v -2.247960 -1.151500 -3.998685
v 2.239206 -1.151504 -3.998685
v 2.248318 -1.939722 -4.364788
v 2.229326 -0.747506 -8.202182
v -2.255667 -0.747493 -8.202183
v -2.266412 0.564401 -9.651157
v 2.215309 0.564386 -9.651156
v -2.265846 -0.323929 -14.828093
v -2.253259 -1.687469 -14.829428
v 2.232846 -1.687479 -14.829427
v 2.216295 -0.323864 -14.859786
v -2.246406 -2.429874 -14.829429
v -2.250365 -2.170295 -16.480658
v 2.241837 -2.429876 -14.829429
v 2.236734 -2.170300 -16.480658
v -2.249424 -1.066676 -4.718779
v 2.237324 -1.066682 -4.718779
v 2.246205 -1.835854 -5.085037
v -2.242670 -1.835856 -5.085037
v 2.254262 -2.431007 -4.369364
v -2.236498 -2.431016 -4.369363
v 2.256268 -2.668588 -5.104191
v -2.235000 -2.668599 -5.104189
vn -1.0000 -0.0085 0.0009
vn -0.0000 -0.0000 -1.0000
vn 0.9999 0.0112 -0.0011
vn -0.0000 0.0077 1.0000
vn 0.0004 -1.0000 0.0004
vn -0.0000 1.0000 -0.0000
vn 0.9999 0.0121 -0.0012
vn -1.0000 -0.0092 0.0009
vn -0.0000 -0.4212 0.9069
vn -0.0000 0.9931 0.1170
vn -0.0009 0.9681 -0.2506
vn -0.0000 0.7413 0.6712
vn -0.0006 0.9998 -0.0214
vn -0.0021 0.9278 -0.3730
vn -1.0000 -0.0085 0.0015
vn 0.9999 0.0111 -0.0019
vn -0.0000 -0.9879 -0.1553
vn -0.0000 -0.0000 1.0000
vn -0.0000 0.9925 0.1223
vn -0.0000 -0.9515 0.3076
vn -0.0000 -0.0093 1.0000
vn -0.0000 0.0230 -0.9997
vn 0.0004 -0.9953 -0.0966
vn -0.0000 -0.9998 -0.0187
vt 0.375000 0.000000
vt 0.500000 0.000000
vt 0.625000 0.000000
vt 0.625000 0.040862
vt 0.625000 0.072267
vt 0.625000 0.250000
vt 0.500000 0.250000
vt 0.375000 0.250000
vt 0.500000 0.375000
vt 0.500000 0.500000
vt 0.375000 0.500000
vt 0.625000 0.500000
vt 0.625000 0.677733
vt 0.625000 0.709138
vt 0.625000 0.750000
vt 0.500000 0.750000
vt 0.375000 0.750000
vt 0.500000 0.875000
vt 0.500000 1.000000
vt 0.375000 1.000000
vt 0.250000 0.500000
vt 0.250000 0.750000
vt 0.125000 0.750000
vt 0.770431 0.729569
vt 0.750000 0.750000
vt 0.625000 0.375000
vt 0.500000 0.500000
vt 0.625000 1.000000
vt 0.776244 0.750000
vt 0.819331 0.500000
vt 0.875000 0.500000
vt 0.786134 0.713866
vt 0.875000 0.625000
vt 0.750000 0.500000
vt 0.875000 0.750000
s 0
f 1/1/1 15/2/1 2/3/1 22/4/1 23/5/1 4/6/1 9/7/1 3/8/1
f 9/9/2 10/10/2 7/11/2 3/8/2
f 7/11/3 10/10/3 8/12/3 24/13/3 21/14/3 6/15/3 16/16/3 5/17/3
f 16/18/4 15/19/4 1/20/4 5/17/4
f 3/21/5 7/11/5 5/22/5 1/23/5
f 21/14/6 22/24/6 2/25/6 6/15/6
f 11/26/2 12/12/2 14/10/2 13/7/2
f 28/12/7 27/27/7 14/10/7 12/12/7
f 13/7/2 14/10/2 32/10/2 30/7/2
f 26/7/8 25/6/8 11/6/8 13/7/8
f 18/28/9 17/19/9 20/16/9 19/15/9
f 35/16/7 34/15/7 19/15/7 20/16/7
f 35/16/7 20/16/7 37/16/7 39/16/7
f 33/3/8 36/2/8 17/2/8 18/3/8
f 33/29/10 18/25/10 19/15/10 34/15/10
f 25/30/11 28/12/11 12/12/11 11/31/11
f 24/13/12 23/32/12 22/24/12 21/14/12
f 8/12/13 4/33/13 23/32/13 24/13/13
f 4/34/14 8/12/14 28/12/14 25/30/14
f 9/7/15 4/6/15 25/6/15 26/7/15
f 9/7/8 26/7/8 29/7/8 3/7/8
f 8/12/16 10/10/16 27/27/16 28/12/16
f 31/27/17 29/9/17 30/9/17 32/10/17
f 14/10/7 27/27/7 31/27/7 32/10/7
f 26/7/8 13/7/8 30/7/8 29/7/8
f 27/27/18 26/9/18 29/9/18 31/27/18
f 2/35/19 33/29/19 34/15/19 6/15/19
f 2/3/8 15/2/8 36/2/8 33/3/8
f 16/16/7 6/15/7 34/15/7 35/16/7
f 40/19/20 39/18/20 37/18/20 38/19/20
f 17/2/8 36/2/8 40/2/8 38/2/8
f 20/16/21 17/19/21 38/19/21 37/16/21
f 36/19/22 35/18/22 39/18/22 40/19/22
f 7/10/23 3/9/23 29/9/23 31/27/23
f 27/27/7 10/10/7 7/10/7 31/27/7
f 1/19/24 5/18/24 39/18/24 40/19/24
f 36/2/8 15/2/8 1/2/8 40/2/8
f 16/16/7 35/16/7 39/16/7 5/16/7
o Cylinder.001
v -2.418036 -2.494029 -7.234118
v 2.418036 -2.494028 -7.234118
v -2.418036 -2.689119 -7.214904
v 2.418036 -2.689118 -7.214904
v -2.418036 -2.876712 -7.157998
v 2.418036 -2.876712 -7.157998
v -2.418036 -3.049599 -7.065588
v 2.418036 -3.049598 -7.065588
v -2.418036 -3.201135 -6.941225
v 2.418036 -3.201135 -6.941225
v -2.418036 -3.325498 -6.789689
v 2.418036 -3.325498 -6.789689
v -2.418036 -3.417908 -6.616802
v 2.418036 -3.417908 -6.616802
v -2.418036 -3.474814 -6.429209
v 2.418036 -3.474813 -6.429209
v -2.418036 -3.494029 -6.234118
v 2.418036 -3.494028 -6.234118
v -2.418036 -3.474814 -6.039028
v 2.418036 -3.474813 -6.039028
v -2.418036 -3.417908 -5.851435
v 2.418036 -3.417908 -5.851435
v -2.418036 -3.325498 -5.678548
v 2.418036 -3.325498 -5.678548
v -2.418036 -3.201135 -5.527012
v 2.418036 -3.201135 -5.527012
v -2.418036 -3.049599 -5.402649
v 2.418036 -3.049598 -5.402649
v -2.418036 -2.876712 -5.310239
v 2.418036 -2.876712 -5.310239
v -2.418036 -2.689119 -5.253333
v 2.418036 -2.689118 -5.253333
v -2.418036 -2.494029 -5.234118
v 2.418036 -2.494028 -5.234118
v -2.418036 -2.298938 -5.253333
v 2.418036 -2.298938 -5.253333
v -2.418036 -2.111345 -5.310239
v 2.418036 -2.111345 -5.310239
v -2.418036 -1.938458 -5.402649
v 2.418036 -1.938458 -5.402649
v -2.418036 -1.786922 -5.527012
v 2.418036 -1.786921 -5.527012
v -2.418036 -1.662559 -5.678548
v 2.418036 -1.662559 -5.678548
v -2.418036 -1.570149 -5.851435
v 2.418036 -1.570149 -5.851435
v -2.418036 -1.513243 -6.039028
v 2.418036 -1.513243 -6.039028
v -2.418036 -1.494029 -6.234118
v 2.418036 -1.494028 -6.234118
v -2.418036 -1.513243 -6.429209
v 2.418036 -1.513243 -6.429209
v -2.418036 -1.570149 -6.616802
v 2.418036 -1.570149 -6.616802
v -2.418036 -1.662559 -6.789689
v 2.418036 -1.662559 -6.789689
v -2.418036 -1.786922 -6.941225
v 2.418036 -1.786921 -6.941225
v -2.418036 -1.938458 -7.065588
v 2.418036 -1.938458 -7.065588
v -2.418036 -2.111345 -7.157998
v 2.418036 -2.111345 -7.157998
v -2.418036 -2.298938 -7.214904
v 2.418036 -2.298938 -7.214904
v -1.747189 -2.494028 -7.234118
v 1.747189 -2.494028 -7.234118
v 1.747189 -2.689119 -7.214904
v -1.747189 -2.689119 -7.214904
v 1.747189 -2.876712 -7.157998
v -1.747189 -2.876712 -7.157998
v 1.747189 -3.049598 -7.065588
v -1.747189 -3.049599 -7.065588
v 1.747189 -3.201135 -6.941225
v -1.747189 -3.201135 -6.941225
v 1.747190 -3.325498 -6.789689
v -1.747189 -3.325498 -6.789689
v 1.747190 -3.417908 -6.616802
v -1.747189 -3.417908 -6.616802
v 1.747190 -3.474813 -6.429209
v -1.747189 -3.474814 -6.429209
v 1.747190 -3.494028 -6.234118
v -1.747189 -3.494029 -6.234118
v 1.747190 -3.474813 -6.039028
v -1.747189 -3.474814 -6.039028
v 1.747190 -3.417908 -5.851435
v -1.747189 -3.417908 -5.851435
v 1.747190 -3.325498 -5.678548
v -1.747189 -3.325498 -5.678548
v 1.747189 -3.201135 -5.527012
v -1.747189 -3.201135 -5.527012
v 1.747189 -3.049598 -5.402649
v -1.747189 -3.049599 -5.402649
v 1.747189 -2.876712 -5.310239
v -1.747189 -2.876712 -5.310239
v 1.747189 -2.689119 -5.253333
v -1.747189 -2.689119 -5.253333
v 1.747189 -2.494028 -5.234118
v -1.747189 -2.494028 -5.234118
v 1.747189 -2.298938 -5.253333
v -1.747189 -2.298938 -5.253333
v 1.747189 -2.111345 -5.310239
v -1.747189 -2.111345 -5.310239
v 1.747189 -1.938458 -5.402649
v -1.747189 -1.938458 -5.402649
v 1.747189 -1.786922 -5.527012
v -1.747189 -1.786922 -5.527012
v 1.747189 -1.662559 -5.678548
v -1.747190 -1.662559 -5.678548
v 1.747189 -1.570149 -5.851435
v -1.747190 -1.570149 -5.851435
v 1.747189 -1.513243 -6.039028
v -1.747190 -1.513243 -6.039028
v 1.747189 -1.494028 -6.234118
v -1.747190 -1.494028 -6.234118
v 1.747189 -1.513243 -6.429209
v -1.747190 -1.513243 -6.429209
v 1.747189 -1.570149 -6.616802
v -1.747190 -1.570149 -6.616802
v 1.747189 -1.662559 -6.789689
v -1.747190 -1.662559 -6.789689
v 1.747189 -1.786922 -6.941225
v -1.747189 -1.786922 -6.941225
v 1.747189 -1.938458 -7.065588
v -1.747189 -1.938458 -7.065588
v 1.747189 -2.111345 -7.157998
v -1.747189 -2.111345 -7.157998
v 1.747189 -2.298938 -7.214904
v -1.747189 -2.298938 -7.214904
vn -0.0000 -0.0980 -0.9952
vn -0.0000 -0.2903 -0.9569
vn -0.0000 -0.4714 -0.8819
vn -0.0000 -0.6344 -0.7730
vn -0.0000 -0.7730 -0.6344
vn -0.0000 -0.8819 -0.4714
vn -0.0000 -0.9569 -0.2903
vn -0.0000 -0.9952 -0.0980
vn -0.0000 -0.9952 0.0980
vn -0.0000 -0.9569 0.2903
vn -0.0000 -0.8819 0.4714
vn -0.0000 -0.7730 0.6344
vn -0.0000 -0.6344 0.7730
vn -0.0000 -0.4714 0.8819
vn -0.0000 -0.2903 0.9569
vn -0.0000 -0.0980 0.9952
vn -0.0000 0.0980 0.9952
vn -0.0000 0.2903 0.9569
vn -0.0000 0.4714 0.8819
vn -0.0000 0.6344 0.7730
vn -0.0000 0.7730 0.6344
vn -0.0000 0.8819 0.4714
vn -0.0000 0.9569 0.2903
vn -0.0000 0.9952 0.0980
vn -0.0000 0.9952 -0.0980
vn -0.0000 0.9569 -0.2903
vn -0.0000 0.8819 -0.4714
vn -0.0000 0.7730 -0.6344
vn -0.0000 0.6344 -0.7730
vn -0.0000 0.4714 -0.8819
vn 1.0000 -0.0000 -0.0000
vn -0.0000 0.2903 -0.9569
vn -0.0000 0.0980 -0.9952
vn -1.0000 -0.0000 -0.0000
vt 1.000000 0.833333
vt 1.000000 1.000000
vt 0.968750 1.000000
vt 0.968750 0.833333
vt 0.937500 1.000000
vt 0.937500 0.833333
vt 0.906250 1.000000
vt 0.906250 0.833333
vt 0.875000 1.000000
vt 0.875000 0.833333
vt 0.843750 1.000000
vt 0.843750 0.833333
vt 0.812500 1.000000
vt 0.812500 0.833333
vt 0.781250 1.000000
vt 0.781250 0.833333
vt 0.750000 1.000000
vt 0.750000 0.833333
vt 0.718750 1.000000
vt 0.718750 0.833333
vt 0.687500 1.000000
vt 0.687500 0.833333
vt 0.656250 1.000000
vt 0.656250 0.833333
vt 0.625000 1.000000
vt 0.625000 0.833333
vt 0.593750 1.000000
vt 0.593750 0.833333
vt 0.562500 1.000000
vt 0.562500 0.833333
vt 0.531250 1.000000
vt 0.531250 0.833333
vt 0.500000 1.000000
vt 0.500000 0.833333
vt 0.468750 1.000000
vt 0.468750 0.833333
vt 0.437500 1.000000
vt 0.437500 0.833333
vt 0.406250 1.000000
vt 0.406250 0.833333
vt 0.375000 1.000000
vt 0.375000 0.833333
vt 0.343750 1.000000
vt 0.343750 0.833333
vt 0.312500 1.000000
vt 0.312500 0.833333
vt 0.281250 1.000000
vt 0.281250 0.833333
vt 0.250000 1.000000
vt 0.250000 0.833333
vt 0.218750 1.000000
vt 0.218750 0.833333
vt 0.187500 1.000000
vt 0.187500 0.833333
vt 0.156250 1.000000
vt 0.156250 0.833333
vt 0.125000 1.000000
vt 0.125000 0.833333
vt 0.093750 1.000000
vt 0.093750 0.833333
vt 0.062500 1.000000
vt 0.062500 0.833333
vt 0.296822 0.485388
vt 0.250000 0.490000
vt 0.203178 0.485388
vt 0.158156 0.471731
vt 0.116663 0.449553
vt 0.080294 0.419706
vt 0.050447 0.383337
vt 0.028269 0.341844
vt 0.014612 0.296822
vt 0.010000 0.250000
vt 0.014612 0.203178
vt 0.028269 0.158156
vt 0.050447 0.116663
vt 0.080294 0.080294
vt 0.116663 0.050447
vt 0.158156 0.028269
vt 0.203178 0.014612
vt 0.250000 0.010000
vt 0.296822 0.014612
vt 0.341844 0.028269
vt 0.383337 0.050447
vt 0.419706 0.080294
vt 0.449553 0.116663
vt 0.471731 0.158156
vt 0.485388 0.203178
vt 0.490000 0.250000
vt 0.485388 0.296822
vt 0.471731 0.341844
vt 0.449553 0.383337
vt 0.419706 0.419706
vt 0.383337 0.449553
vt 0.341844 0.471731
vt 0.031250 1.000000
vt 0.031250 0.833333
vt 0.000000 1.000000
vt 0.000000 0.833333
vt 0.750000 0.490000
vt 0.796822 0.485388
vt 0.841844 0.471731
vt 0.883337 0.449553
vt 0.919706 0.419706
vt 0.949553 0.383337
vt 0.971731 0.341844
vt 0.985388 0.296822
vt 0.990000 0.250000
vt 0.985388 0.203178
vt 0.971731 0.158156
vt 0.949553 0.116663
vt 0.919706 0.080294
vt 0.883337 0.050447
vt 0.841844 0.028269
vt 0.796822 0.014612
vt 0.750000 0.010000
vt 0.703178 0.014612
vt 0.658156 0.028269
vt 0.616663 0.050447
vt 0.580294 0.080294
vt 0.550447 0.116663
vt 0.528269 0.158156
vt 0.514612 0.203178
vt 0.510000 0.250000
vt 0.514612 0.296822
vt 0.528269 0.341844
vt 0.550447 0.383337
vt 0.580294 0.419706
vt 0.616663 0.449553
vt 0.658156 0.471731
vt 0.703178 0.485388
vt 0.031250 0.500000
vt 0.031250 0.666667
vt 0.000000 0.666667
vt 0.000000 0.500000
vt 0.062500 0.500000
vt 0.062500 0.666667
vt 0.093750 0.500000
vt 0.093750 0.666667
vt 0.125000 0.500000
vt 0.125000 0.666667
vt 0.156250 0.500000
vt 0.156250 0.666667
vt 0.187500 0.500000
vt 0.187500 0.666667
vt 0.218750 0.500000
vt 0.218750 0.666667
vt 0.250000 0.500000
vt 0.250000 0.666667
vt 0.281250 0.500000
vt 0.281250 0.666667
vt 0.312500 0.500000
vt 0.312500 0.666667
vt 0.343750 0.500000
vt 0.343750 0.666667
vt 0.375000 0.500000
vt 0.375000 0.666667
vt 0.406250 0.500000
vt 0.406250 0.666667
vt 0.437500 0.500000
vt 0.437500 0.666667
vt 0.468750 0.500000
vt 0.468750 0.666667
vt 0.500000 0.500000
vt 0.500000 0.666667
vt 0.531250 0.500000
vt 0.531250 0.666667
vt 0.562500 0.500000
vt 0.562500 0.666667
vt 0.593750 0.500000
vt 0.593750 0.666667
vt 0.625000 0.500000
vt 0.625000 0.666667
vt 0.656250 0.500000
vt 0.656250 0.666667
vt 0.687500 0.500000
vt 0.687500 0.666667
vt 0.718750 0.500000
vt 0.718750 0.666667
vt 0.750000 0.500000
vt 0.750000 0.666667
vt 0.781250 0.500000
vt 0.781250 0.666667
vt 0.812500 0.500000
vt 0.812500 0.666667
vt 0.843750 0.500000
vt 0.843750 0.666667
vt 0.875000 0.500000
vt 0.875000 0.666667
vt 0.906250 0.500000
vt 0.906250 0.666667
vt 0.937500 0.500000
vt 0.937500 0.666667
vt 0.968750 0.500000
vt 0.968750 0.666667
vt 1.000000 0.500000
vt 1.000000 0.666667
s 0
f 106/36/25 42/37/25 44/38/25 107/39/25
f 107/39/26 44/38/26 46/40/26 109/41/26
f 109/41/27 46/40/27 48/42/27 111/43/27
f 111/43/28 48/42/28 50/44/28 113/45/28
f 113/45/29 50/44/29 52/46/29 115/47/29
f 115/47/30 52/46/30 54/48/30 117/49/30
f 117/49/31 54/48/31 56/50/31 119/51/31
f 119/51/32 56/50/32 58/52/32 121/53/32
f 121/53/33 58/52/33 60/54/33 123/55/33
f 123/55/34 60/54/34 62/56/34 125/57/34
f 125/57/35 62/56/35 64/58/35 127/59/35
f 127/59/36 64/58/36 66/60/36 129/61/36
f 129/61/37 66/60/37 68/62/37 131/63/37
f 131/63/38 68/62/38 70/64/38 133/65/38
f 133/65/39 70/64/39 72/66/39 135/67/39
f 135/67/40 72/66/40 74/68/40 137/69/40
f 137/69/41 74/68/41 76/70/41 139/71/41
f 139/71/42 76/70/42 78/72/42 141/73/42
f 141/73/43 78/72/43 80/74/43 143/75/43
f 143/75/44 80/74/44 82/76/44 145/77/44
f 145/77/45 82/76/45 84/78/45 147/79/45
f 147/79/46 84/78/46 86/80/46 149/81/46
f 149/81/47 86/80/47 88/82/47 151/83/47
f 151/83/48 88/82/48 90/84/48 153/85/48
f 153/85/49 90/84/49 92/86/49 155/87/49
f 155/87/50 92/86/50 94/88/50 157/89/50
f 157/89/51 94/88/51 96/90/51 159/91/51
f 159/91/52 96/90/52 98/92/52 161/93/52
f 161/93/53 98/92/53 100/94/53 163/95/53
f 163/95/54 100/94/54 102/96/54 165/97/54
f 44/98/55 42/99/55 104/100/55 102/101/55 100/102/55 98/103/55 96/104/55 94/105/55 92/106/55 90/107/55 88/108/55 86/109/55 84/110/55 82/111/55 80/112/55 78/113/55 76/114/55 74/115/55 72/116/55 70/117/55 68/118/55 66/119/55 64/120/55 62/121/55 60/122/55 58/123/55 56/124/55 54/125/55 52/126/55 50/127/55 48/128/55 46/129/55
f 165/97/56 102/96/56 104/130/56 167/131/56
f 167/131/57 104/130/57 42/132/57 106/133/57
f 41/134/58 43/135/58 45/136/58 47/137/58 49/138/58 51/139/58 53/140/58 55/141/58 57/142/58 59/143/58 61/144/58 63/145/58 65/146/58 67/147/58 69/148/58 71/149/58 73/150/58 75/151/58 77/152/58 79/153/58 81/154/58 83/155/58 85/156/58 87/157/58 89/158/58 91/159/58 93/160/58 95/161/58 97/162/58 99/163/58 101/164/58 103/165/58
f 103/166/57 168/167/57 105/168/57 41/169/57
f 101/170/56 166/171/56 168/167/56 103/166/56
f 99/172/54 164/173/54 166/171/54 101/170/54
f 97/174/53 162/175/53 164/173/53 99/172/53
f 95/176/52 160/177/52 162/175/52 97/174/52
f 93/178/51 158/179/51 160/177/51 95/176/51
f 91/180/50 156/181/50 158/179/50 93/178/50
f 89/182/49 154/183/49 156/181/49 91/180/49
f 87/184/48 152/185/48 154/183/48 89/182/48
f 85/186/47 150/187/47 152/185/47 87/184/47
f 83/188/46 148/189/46 150/187/46 85/186/46
f 81/190/45 146/191/45 148/189/45 83/188/45
f 79/192/44 144/193/44 146/191/44 81/190/44
f 77/194/43 142/195/43 144/193/43 79/192/43
f 75/196/42 140/197/42 142/195/42 77/194/42
f 73/198/41 138/199/41 140/197/41 75/196/41
f 71/200/40 136/201/40 138/199/40 73/198/40
f 69/202/39 134/203/39 136/201/39 71/200/39
f 67/204/38 132/205/38 134/203/38 69/202/38
f 65/206/37 130/207/37 132/205/37 67/204/37
f 63/208/36 128/209/36 130/207/36 65/206/36
f 61/210/35 126/211/35 128/209/35 63/208/35
f 59/212/34 124/213/34 126/211/34 61/210/34
f 57/214/33 122/215/33 124/213/33 59/212/33
f 55/216/32 120/217/32 122/215/32 57/214/32
f 53/218/31 118/219/31 120/217/31 55/216/31
f 51/220/30 116/221/30 118/219/30 53/218/30
f 49/222/29 114/223/29 116/221/29 51/220/29
f 47/224/28 112/225/28 114/223/28 49/222/28
f 45/226/27 110/227/27 112/225/27 47/224/27
f 43/228/26 108/229/26 110/227/26 45/226/26
f 41/230/25 105/231/25 108/229/25 43/228/25
f 168/167/55 166/171/55 164/173/55 162/175/55 160/177/55 158/179/55 156/181/55 154/183/55 152/185/55 150/187/55 148/189/55 146/191/55 144/193/55 142/195/55 140/197/55 138/199/55 136/201/55 134/203/55 132/205/55 130/207/55 128/209/55 126/211/55 124/213/55 122/215/55 120/217/55 118/219/55 116/221/55 114/223/55 112/225/55 110/227/55 108/229/55 105/231/55
f 167/131/58 106/36/58 107/39/58 109/41/58 111/43/58 113/45/58 115/47/58 117/49/58 119/51/58 121/53/58 123/55/58 125/57/58 127/59/58 129/61/58 131/63/58 133/65/58 135/67/58 137/69/58 139/71/58 141/73/58 143/75/58 145/77/58 147/79/58 149/81/58 151/83/58 153/85/58 155/87/58 157/89/58 159/91/58 161/93/58 163/95/58 165/97/58
o Cylinder.002
v -2.418036 -2.494029 -15.234118
v 2.418036 -2.494028 -15.234118
v -2.418036 -2.689119 -15.214904
v 2.418036 -2.689118 -15.214904
v -2.418036 -2.876712 -15.157998
v 2.418036 -2.876712 -15.157998
v -2.418036 -3.049599 -15.065588
v 2.418036 -3.049598 -15.065588
v -2.418036 -3.201135 -14.941225
v 2.418036 -3.201135 -14.941225
v -2.418036 -3.325498 -14.789689
v 2.418036 -3.325498 -14.789689
v -2.418036 -3.417908 -14.616802
v 2.418036 -3.417908 -14.616802
v -2.418036 -3.474814 -14.429209
v 2.418036 -3.474813 -14.429209
v -2.418036 -3.494029 -14.234118
v 2.418036 -3.494028 -14.234118
v -2.418036 -3.474814 -14.039028
v 2.418036 -3.474813 -14.039028
v -2.418036 -3.417908 -13.851435
v 2.418036 -3.417908 -13.851435
v -2.418036 -3.325498 -13.678548
v 2.418036 -3.325498 -13.678548
v -2.418036 -3.201135 -13.527012
v 2.418036 -3.201135 -13.527012
v -2.418036 -3.049599 -13.402649
v 2.418036 -3.049598 -13.402649
v -2.418036 -2.876712 -13.310239
v 2.418036 -2.876712 -13.310239
v -2.418036 -2.689119 -13.253333
v 2.418036 -2.689118 -13.253333
v -2.418036 -2.494029 -13.234118
v 2.418036 -2.494028 -13.234118
v -2.418036 -2.298938 -13.253333
v 2.418036 -2.298938 -13.253333
v -2.418036 -2.111345 -13.310239
v 2.418036 -2.111345 -13.310239
v -2.418036 -1.938458 -13.402649
v 2.418036 -1.938458 -13.402649
v -2.418036 -1.786922 -13.527012
v 2.418036 -1.786921 -13.527012
v -2.418036 -1.662559 -13.678548
v 2.418036 -1.662559 -13.678548
v -2.418036 -1.570149 -13.851435
v 2.418036 -1.570149 -13.851435
v -2.418036 -1.513243 -14.039028
v 2.418036 -1.513243 -14.039028
v -2.418036 -1.494029 -14.234118
v 2.418036 -1.494028 -14.234118
v -2.418036 -1.513243 -14.429209
v 2.418036 -1.513243 -14.429209
v -2.418036 -1.570149 -14.616802
v 2.418036 -1.570149 -14.616802
v -2.418036 -1.662559 -14.789689
v 2.418036 -1.662559 -14.789689
v -2.418036 -1.786922 -14.941225
v 2.418036 -1.786921 -14.941225
v -2.418036 -1.938458 -15.065588
v 2.418036 -1.938458 -15.065588
v -2.418036 -2.111345 -15.157998
v 2.418036 -2.111345 -15.157998
v -2.418036 -2.298938 -15.214904
v 2.418036 -2.298938 -15.214904
v -1.752631 -2.494028 -15.234118
v 1.752631 -2.494028 -15.234118
v 1.752631 -2.689119 -15.214904
v -1.752631 -2.689119 -15.214904
v 1.752631 -2.876712 -15.157998
v -1.752631 -2.876712 -15.157998
v 1.752631 -3.049599 -15.065588
v -1.752631 -3.049599 -15.065588
v 1.752631 -3.201135 -14.941225
v -1.752631 -3.201135 -14.941225
v 1.752631 -3.325498 -14.789689
v -1.752631 -3.325498 -14.789689
v 1.752631 -3.417908 -14.616802
v -1.752631 -3.417908 -14.616802
v 1.752631 -3.474813 -14.429209
v -1.752631 -3.474813 -14.429209
v 1.752631 -3.494028 -14.234118
v -1.752631 -3.494028 -14.234118
v 1.752631 -3.474813 -14.039028
v -1.752631 -3.474813 -14.039028
v 1.752631 -3.417908 -13.851435
v -1.752631 -3.417908 -13.851435
v 1.752631 -3.325498 -13.678548
v -1.752631 -3.325498 -13.678548
v 1.752631 -3.201135 -13.527012
v -1.752631 -3.201135 -13.527012
v 1.752631 -3.049599 -13.402649
v -1.752631 -3.049599 -13.402649
v 1.752631 -2.876712 -13.310239
v -1.752631 -2.876712 -13.310239
v 1.752631 -2.689119 -13.253333
v -1.752631 -2.689119 -13.253333
v 1.752631 -2.494028 -13.234118
v -1.752631 -2.494028 -13.234118
v 1.752631 -2.298938 -13.253333
v -1.752631 -2.298938 -13.253333
v 1.752631 -2.111345 -13.310239
v -1.752631 -2.111345 -13.310239
v 1.752631 -1.938458 -13.402649
v -1.752631 -1.938458 -13.402649
v 1.752631 -1.786922 -13.527012
v -1.752631 -1.786922 -13.527012
v 1.752631 -1.662559 -13.678548
v -1.752631 -1.662559 -13.678548
v 1.752631 -1.570149 -13.851435
v -1.752631 -1.570149 -13.851435
v 1.752631 -1.513243 -14.039028
v -1.752631 -1.513243 -14.039028
v 1.752631 -1.494028 -14.234118
v -1.752631 -1.494028 -14.234118
v 1.752631 -1.513243 -14.429209
v -1.752631 -1.513243 -14.429209
v 1.752631 -1.570149 -14.616802
v -1.752631 -1.570149 -14.616802
v 1.752631 -1.662559 -14.789689
v -1.752631 -1.662559 -14.789689
v 1.752631 -1.786922 -14.941225
v -1.752631 -1.786922 -14.941225
v 1.752631 -1.938458 -15.065588
v -1.752631 -1.938458 -15.065588
v 1.752631 -2.111345 -15.157998
v -1.752631 -2.111345 -15.157998
v 1.752631 -2.298938 -15.214904
v -1.752631 -2.298938 -15.214904
vn -0.0000 -0.0980 -0.9952
vn -0.0000 -0.2903 -0.9569
vn -0.0000 -0.4714 -0.8819
vn -0.0000 -0.6344 -0.7730
vn -0.0000 -0.7730 -0.6344
vn -0.0000 -0.8819 -0.4714
vn -0.0000 -0.9569 -0.2903
vn -0.0000 -0.9952 -0.0980
vn -0.0000 -0.9952 0.0980
vn -0.0000 -0.9569 0.2903
vn -0.0000 -0.8819 0.4714
vn -0.0000 -0.7730 0.6344
vn -0.0000 -0.6344 0.7730
vn -0.0000 -0.4714 0.8819
vn -0.0000 -0.2903 0.9569
vn -0.0000 -0.0980 0.9952
vn -0.0000 0.0980 0.9952
vn -0.0000 0.2903 0.9569
vn -0.0000 0.4714 0.8819
vn -0.0000 0.6344 0.7730
vn -0.0000 0.7730 0.6344
vn -0.0000 0.8819 0.4714
vn -0.0000 0.9569 0.2903
vn -0.0000 0.9952 0.0980
vn -0.0000 0.9952 -0.0980
vn -0.0000 0.9569 -0.2903
vn -0.0000 0.8819 -0.4714
vn -0.0000 0.7730 -0.6344
vn -0.0000 0.6344 -0.7730
vn -0.0000 0.4714 -0.8819
vn 1.0000 -0.0000 -0.0000
vn -0.0000 0.2903 -0.9569
vn -0.0000 0.0980 -0.9952
vn -1.0000 -0.0000 -0.0000
vt 1.000000 0.833333
vt 1.000000 1.000000
vt 0.968750 1.000000
vt 0.968750 0.833333
vt 0.937500 1.000000
vt 0.937500 0.833333
vt 0.906250 1.000000
vt 0.906250 0.833333
vt 0.875000 1.000000
vt 0.875000 0.833333
vt 0.843750 1.000000
vt 0.843750 0.833333
vt 0.812500 1.000000
vt 0.812500 0.833333
vt 0.781250 1.000000
vt 0.781250 0.833333
vt 0.750000 1.000000
vt 0.750000 0.833333
vt 0.718750 1.000000
vt 0.718750 0.833333
vt 0.687500 1.000000
vt 0.687500 0.833333
vt 0.656250 1.000000
vt 0.656250 0.833333
vt 0.625000 1.000000
vt 0.625000 0.833333
vt 0.593750 1.000000
vt 0.593750 0.833333
vt 0.562500 1.000000
vt 0.562500 0.833333
vt 0.531250 1.000000
vt 0.531250 0.833333
vt 0.500000 1.000000
vt 0.500000 0.833333
vt 0.468750 1.000000
vt 0.468750 0.833333
vt 0.437500 1.000000
vt 0.437500 0.833333
vt 0.406250 1.000000
vt 0.406250 0.833333
vt 0.375000 1.000000
vt 0.375000 0.833333
vt 0.343750 1.000000
vt 0.343750 0.833333
vt 0.312500 1.000000
vt 0.312500 0.833333
vt 0.281250 1.000000
vt 0.281250 0.833333
vt 0.250000 1.000000
vt 0.250000 0.833333
vt 0.218750 1.000000
vt 0.218750 0.833333
vt 0.187500 1.000000
vt 0.187500 0.833333
vt 0.156250 1.000000
vt 0.156250 0.833333
vt 0.125000 1.000000
vt 0.125000 0.833333
vt 0.093750 1.000000
vt 0.093750 0.833333
vt 0.062500 1.000000
vt 0.062500 0.833333
vt 0.296822 0.485388
vt 0.250000 0.490000
vt 0.203178 0.485388
vt 0.158156 0.471731
vt 0.116663 0.449553
vt 0.080294 0.419706
vt 0.050447 0.383337
vt 0.028269 0.341844
vt 0.014612 0.296822
vt 0.010000 0.250000
vt 0.014612 0.203178
vt 0.028269 0.158156
vt 0.050447 0.116663
vt 0.080294 0.080294
vt 0.116663 0.050447
vt 0.158156 0.028269
vt 0.203178 0.014612
vt 0.250000 0.010000
vt 0.296822 0.014612
vt 0.341844 0.028269
vt 0.383337 0.050447
vt 0.419706 0.080294
vt 0.449553 0.116663
vt 0.471731 0.158156
vt 0.485388 0.203178
vt 0.490000 0.250000
vt 0.485388 0.296822
vt 0.471731 0.341844
vt 0.449553 0.383337
vt 0.419706 0.419706
vt 0.383337 0.449553
vt 0.341844 0.471731
vt 0.031250 1.000000
vt 0.031250 0.833333
vt 0.000000 1.000000
vt 0.000000 0.833333
vt 0.750000 0.490000
vt 0.796822 0.485388
vt 0.841844 0.471731
vt 0.883337 0.449553
vt 0.919706 0.419706
vt 0.949553 0.383337
vt 0.971731 0.341844
vt 0.985388 0.296822
vt 0.990000 0.250000
vt 0.985388 0.203178
vt 0.971731 0.158156
vt 0.949553 0.116663
vt 0.919706 0.080294
vt 0.883337 0.050447
vt 0.841844 0.028269
vt 0.796822 0.014612
vt 0.750000 0.010000
vt 0.703178 0.014612
vt 0.658156 0.028269
vt 0.616663 0.050447
vt 0.580294 0.080294
vt 0.550447 0.116663
vt 0.528269 0.158156
vt 0.514612 0.203178
vt 0.510000 0.250000
vt 0.514612 0.296822
vt 0.528269 0.341844
vt 0.550447 0.383337
vt 0.580294 0.419706
vt 0.616663 0.449553
vt 0.658156 0.471731
vt 0.703178 0.485388
vt 0.031250 0.500000
vt 0.031250 0.666667
vt 0.000000 0.666667
vt 0.000000 0.500000
vt 0.062500 0.500000
vt 0.062500 0.666667
vt 0.093750 0.500000
vt 0.093750 0.666667
vt 0.125000 0.500000
vt 0.125000 0.666667
vt 0.156250 0.500000
vt 0.156250 0.666667
vt 0.187500 0.500000
vt 0.187500 0.666667
vt 0.218750 0.500000
vt 0.218750 0.666667
vt 0.250000 0.500000
vt 0.250000 0.666667
vt 0.281250 0.500000
vt 0.281250 0.666667
vt 0.312500 0.500000
vt 0.312500 0.666667
vt 0.343750 0.500000
vt 0.343750 0.666667
vt 0.375000 0.500000
vt 0.375000 0.666667
vt 0.406250 0.500000
vt 0.406250 0.666667
vt 0.437500 0.500000
vt 0.437500 0.666667
vt 0.468750 0.500000
vt 0.468750 0.666667
vt 0.500000 0.500000
vt 0.500000 0.666667
vt 0.531250 0.500000
vt 0.531250 0.666667
vt 0.562500 0.500000
vt 0.562500 0.666667
vt 0.593750 0.500000
vt 0.593750 0.666667
vt 0.625000 0.500000
vt 0.625000 0.666667
vt 0.656250 0.500000
vt 0.656250 0.666667
vt 0.687500 0.500000
vt 0.687500 0.666667
vt 0.718750 0.500000
vt 0.718750 0.666667
vt 0.750000 0.500000
vt 0.750000 0.666667
vt 0.781250 0.500000
vt 0.781250 0.666667
vt 0.812500 0.500000
vt 0.812500 0.666667
vt 0.843750 0.500000
vt 0.843750 0.666667
vt 0.875000 0.500000
vt 0.875000 0.666667
vt 0.906250 0.500000
vt 0.906250 0.666667
vt 0.937500 0.500000
vt 0.937500 0.666667
vt 0.968750 0.500000
vt 0.968750 0.666667
vt 1.000000 0.500000
vt 1.000000 0.666667
s 0
f 234/232/59 170/233/59 172/234/59 235/235/59
f 235/235/60 172/234/60 174/236/60 237/237/60
f 237/237/61 174/236/61 176/238/61 239/239/61
f 239/239/62 176/238/62 178/240/62 241/241/62
f 241/241/63 178/240/63 180/242/63 243/243/63
f 243/243/64 180/242/64 182/244/64 245/245/64
f 245/245/65 182/244/65 184/246/65 247/247/65
f 247/247/66 184/246/66 186/248/66 249/249/66
f 249/249/67 186/248/67 188/250/67 251/251/67
f 251/251/68 188/250/68 190/252/68 253/253/68
f 253/253/69 190/252/69 192/254/69 255/255/69
f 255/255/70 192/254/70 194/256/70 257/257/70
f 257/257/71 194/256/71 196/258/71 259/259/71
f 259/259/72 196/258/72 198/260/72 261/261/72
f 261/261/73 198/260/73 200/262/73 263/263/73
f 263/263/74 200/262/74 202/264/74 265/265/74
f 265/265/75 202/264/75 204/266/75 267/267/75
f 267/267/76 204/266/76 206/268/76 269/269/76
f 269/269/77 206/268/77 208/270/77 271/271/77
f 271/271/78 208/270/78 210/272/78 273/273/78
f 273/273/79 210/272/79 212/274/79 275/275/79
f 275/275/80 212/274/80 214/276/80 277/277/80
f 277/277/81 214/276/81 216/278/81 279/279/81
f 279/279/82 216/278/82 218/280/82 281/281/82
f 281/281/83 218/280/83 220/282/83 283/283/83
f 283/283/84 220/282/84 222/284/84 285/285/84
f 285/285/85 222/284/85 224/286/85 287/287/85
f 287/287/86 224/286/86 226/288/86 289/289/86
f 289/289/87 226/288/87 228/290/87 291/291/87
f 291/291/88 228/290/88 230/292/88 293/293/88
f 172/294/89 170/295/89 232/296/89 230/297/89 228/298/89 226/299/89 224/300/89 222/301/89 220/302/89 218/303/89 216/304/89 214/305/89 212/306/89 210/307/89 208/308/89 206/309/89 204/310/89 202/311/89 200/312/89 198/313/89 196/314/89 194/315/89 192/316/89 190/317/89 188/318/89 186/319/89 184/320/89 182/321/89 180/322/89 178/323/89 176/324/89 174/325/89
f 293/293/90 230/292/90 232/326/90 295/327/90
f 295/327/91 232/326/91 170/328/91 234/329/91
f 169/330/92 171/331/92 173/332/92 175/333/92 177/334/92 179/335/92 181/336/92 183/337/92 185/338/92 187/339/92 189/340/92 191/341/92 193/342/92 195/343/92 197/344/92 199/345/92 201/346/92 203/347/92 205/348/92 207/349/92 209/350/92 211/351/92 213/352/92 215/353/92 217/354/92 219/355/92 221/356/92 223/357/92 225/358/92 227/359/92 229/360/92 231/361/92
f 231/362/91 296/363/91 233/364/91 169/365/91
f 229/366/90 294/367/90 296/363/90 231/362/90
f 227/368/88 292/369/88 294/367/88 229/366/88
f 225/370/87 290/371/87 292/369/87 227/368/87
f 223/372/86 288/373/86 290/371/86 225/370/86
f 221/374/85 286/375/85 288/373/85 223/372/85
f 219/376/84 284/377/84 286/375/84 221/374/84
f 217/378/83 282/379/83 284/377/83 219/376/83
f 215/380/82 280/381/82 282/379/82 217/378/82
f 213/382/81 278/383/81 280/381/81 215/380/81
f 211/384/80 276/385/80 278/383/80 213/382/80
f 209/386/79 274/387/79 276/385/79 211/384/79
f 207/388/78 272/389/78 274/387/78 209/386/78
f 205/390/77 270/391/77 272/389/77 207/388/77
f 203/392/76 268/393/76 270/391/76 205/390/76
f 201/394/75 266/395/75 268/393/75 203/392/75
f 199/396/74 264/397/74 266/395/74 201/394/74
f 197/398/73 262/399/73 264/397/73 199/396/73
f 195/400/72 260/401/72 262/399/72 197/398/72
f 193/402/71 258/403/71 260/401/71 195/400/71
f 191/404/70 256/405/70 258/403/70 193/402/70
f 189/406/69 254/407/69 256/405/69 191/404/69
f 187/408/68 252/409/68 254/407/68 189/406/68
f 185/410/67 250/411/67 252/409/67 187/408/67
f 183/412/66 248/413/66 250/411/66 185/410/66
f 181/414/65 246/415/65 248/413/65 183/412/65
f 179/416/64 244/417/64 246/415/64 181/414/64
f 177/418/63 242/419/63 244/417/63 179/416/63
f 175/420/62 240/421/62 242/419/62 177/418/62
f 173/422/61 238/423/61 240/421/61 175/420/61
f 171/424/60 236/425/60 238/423/60 173/422/60
f 169/426/59 233/427/59 236/425/59 171/424/59
f 296/363/89 294/367/89 292/369/89 290/371/89 288/373/89 286/375/89 284/377/89 282/379/89 280/381/89 278/383/89 276/385/89 274/387/89 272/389/89 270/391/89 268/393/89 266/395/89 264/397/89 262/399/89 260/401/89 258/403/89 256/405/89 254/407/89 252/409/89 250/411/89 248/413/89 246/415/89 244/417/89 242/419/89 240/421/89 238/423/89 236/425/89 233/427/89
f 295/327/92 234/232/92 235/235/92 237/237/92 239/239/92 241/241/92 243/243/92 245/245/92 247/247/92 249/249/92 251/251/92 253/253/92 255/255/92 257/257/92 259/259/92 261/261/92 263/263/92 265/265/92 267/267/92 269/269/92 271/271/92 273/273/92 275/275/92 277/277/92 279/279/92 281/281/92 283/283/92 285/285/92 287/287/92 289/289/92 291/291/92 293/293/92
o Cylinder
v 1.795878 -1.254824 -4.626564
v 1.794887 -1.255940 -3.931966
v 1.863637 -1.261456 -4.626478
v 1.862646 -1.262572 -3.931880
v 1.928800 -1.281179 -4.626417
v 1.927809 -1.282295 -3.931819
v 1.988863 -1.313236 -4.626382
v 1.987873 -1.314352 -3.931785
v 2.041518 -1.356395 -4.626377
v 2.040528 -1.357511 -3.931779
v 2.084742 -1.408997 -4.626400
v 2.083751 -1.410113 -3.931802
v 2.116873 -1.469020 -4.626451
v 2.115882 -1.470137 -3.931852
v 2.136676 -1.534159 -4.626527
v 2.135686 -1.535275 -3.931929
v 2.143391 -1.601910 -4.626626
v 2.142401 -1.603026 -3.932028
v 2.136760 -1.669669 -4.626744
v 2.135770 -1.670785 -3.932147
v 2.117037 -1.734832 -4.626877
v 2.116046 -1.735948 -3.932279
v 2.084980 -1.794895 -4.627019
v 2.083990 -1.796011 -3.932422
v 2.041821 -1.847550 -4.627166
v 2.040831 -1.848666 -3.932568
v 1.989219 -1.890774 -4.627310
v 1.988229 -1.891890 -3.932712
v 1.929196 -1.922904 -4.627447
v 1.928205 -1.924020 -3.932849
v 1.864057 -1.942708 -4.627572
v 1.863067 -1.943824 -3.932974
v 1.796306 -1.949423 -4.627679
v 1.795316 -1.950539 -3.933081
v 1.728548 -1.942791 -4.627765
v 1.727557 -1.943907 -3.933167
v 1.663384 -1.923068 -4.627827
v 1.662394 -1.924184 -3.933228
v 1.603321 -1.891011 -4.627861
v 1.602331 -1.892127 -3.933263
v 1.550666 -1.847852 -4.627866
v 1.549676 -1.848968 -3.933269
v 1.507442 -1.795250 -4.627843
v 1.506452 -1.796366 -3.933246
v 1.475311 -1.735226 -4.627793
v 1.474321 -1.736342 -3.933195
v 1.455508 -1.670088 -4.627717
v 1.454517 -1.671204 -3.933119
v 1.448793 -1.602337 -4.627617
v 1.447802 -1.603453 -3.933019
v 1.455424 -1.534578 -4.627499
v 1.454434 -1.535694 -3.932901
v 1.475147 -1.469415 -4.627366
v 1.474157 -1.470531 -3.932768
v 1.507204 -1.409352 -4.627223
v 1.506214 -1.410468 -3.932626
v 1.550363 -1.356697 -4.627078
v 1.549372 -1.357813 -3.932480
v 1.602965 -1.313473 -4.626933
v 1.601974 -1.314590 -3.932335
v 1.662988 -1.281343 -4.626796
v 1.661998 -1.282459 -3.932198
v 1.728127 -1.261539 -4.626671
v 1.727137 -1.262655 -3.932073
v 1.098378 -1.299771 -4.581761
v 1.097516 -1.300743 -3.976912
v 1.157382 -1.305546 -4.581686
v 1.156520 -1.306517 -3.976838
v 1.214125 -1.322720 -4.581634
v 1.213263 -1.323692 -3.976784
v 1.266428 -1.350635 -4.581604
v 1.265566 -1.351607 -3.976755
v 1.312280 -1.388217 -4.581599
v 1.311417 -1.389189 -3.976750
v 1.349918 -1.434023 -4.581619
v 1.349056 -1.434995 -3.976770
v 1.377898 -1.486291 -4.581663
v 1.377035 -1.487263 -3.976814
v 1.395142 -1.543013 -4.581729
v 1.394280 -1.543985 -3.976880
v 1.400990 -1.602010 -4.581816
v 1.400127 -1.602981 -3.976967
v 1.395215 -1.661013 -4.581919
v 1.394353 -1.661985 -3.977070
v 1.378040 -1.717757 -4.582035
v 1.377178 -1.718729 -3.977185
v 1.350126 -1.770059 -4.582158
v 1.349263 -1.771031 -3.977309
v 1.312544 -1.815911 -4.582285
v 1.311681 -1.816882 -3.977437
v 1.266738 -1.853549 -4.582411
v 1.265876 -1.854521 -3.977562
v 1.214470 -1.881528 -4.582531
v 1.213608 -1.882500 -3.977682
v 1.157748 -1.898773 -4.582639
v 1.156886 -1.899745 -3.977790
v 1.098752 -1.904620 -4.582733
v 1.097889 -1.905592 -3.977884
v 1.039748 -1.898845 -4.582808
v 1.038885 -1.899817 -3.977959
v 0.983004 -1.881671 -4.582861
v 0.982142 -1.882643 -3.978012
v 0.930702 -1.853756 -4.582891
v 0.929839 -1.854728 -3.978042
v 0.884850 -1.816174 -4.582896
v 0.883988 -1.817145 -3.978047
v 0.847211 -1.770368 -4.582876
v 0.846349 -1.771340 -3.978027
v 0.819232 -1.718100 -4.582832
v 0.818370 -1.719072 -3.977983
v 0.801987 -1.661378 -4.582765
v 0.801125 -1.662350 -3.977916
v 0.796140 -1.602381 -4.582679
v 0.795278 -1.603353 -3.977830
v 0.801915 -1.543378 -4.582576
v 0.801052 -1.544350 -3.977727
v 0.819089 -1.486634 -4.582460
v 0.818227 -1.487606 -3.977611
v 0.847004 -1.434332 -4.582336
v 0.846142 -1.435304 -3.977487
v 0.884586 -1.388480 -4.582209
v 0.883724 -1.389452 -3.977360
v 0.930391 -1.350842 -4.582083
v 0.929529 -1.351814 -3.977234
v 0.982660 -1.322863 -4.581964
v 0.981797 -1.323835 -3.977115
v 1.039382 -1.305618 -4.581855
v 1.038519 -1.306590 -3.977006
vn 0.0974 0.9952 0.0017
vn 0.2897 0.9571 0.0020
vn 0.4709 0.8822 0.0021
vn 0.6339 0.7734 0.0021
vn 0.7726 0.6349 0.0021
vn 0.8816 0.4719 0.0020
vn 0.9568 0.2909 0.0018
vn 0.9951 0.0986 0.0016
vn 0.9952 -0.0974 0.0013
vn 0.9571 -0.2897 0.0009
vn 0.8822 -0.4709 0.0005
vn 0.7734 -0.6339 0.0001
vn 0.6349 -0.7726 -0.0003
vn 0.4719 -0.8816 -0.0007
vn 0.2909 -0.9568 -0.0011
vn 0.0986 -0.9951 -0.0015
vn -0.0974 -0.9952 -0.0017
vn -0.2897 -0.9571 -0.0020
vn -0.4709 -0.8822 -0.0021
vn -0.6339 -0.7734 -0.0021
vn -0.7726 -0.6349 -0.0021
vn -0.8816 -0.4719 -0.0020
vn -0.9568 -0.2909 -0.0018
vn -0.9951 -0.0986 -0.0016
vn -0.9952 0.0974 -0.0013
vn -0.9571 0.2897 -0.0009
vn -0.8822 0.4709 -0.0005
vn -0.7734 0.6339 -0.0001
vn -0.6349 0.7726 0.0003
vn -0.4719 0.8816 0.0007
vn -0.0014 -0.0016 1.0000
vn -0.2909 0.9568 0.0011
vn -0.0986 0.9951 0.0015
vn 0.0014 0.0016 -1.0000
vt 1.000000 0.500000
vt 1.000000 1.000000
vt 0.968750 1.000000
vt 0.968750 0.500000
vt 0.937500 1.000000
vt 0.937500 0.500000
vt 0.906250 1.000000
vt 0.906250 0.500000
vt 0.875000 1.000000
vt 0.875000 0.500000
vt 0.843750 1.000000
vt 0.843750 0.500000
vt 0.812500 1.000000
vt 0.812500 0.500000
vt 0.781250 1.000000
vt 0.781250 0.500000
vt 0.750000 1.000000
vt 0.750000 0.500000
vt 0.718750 1.000000
vt 0.718750 0.500000
vt 0.687500 1.000000
vt 0.687500 0.500000
vt 0.656250 1.000000
vt 0.656250 0.500000
vt 0.625000 1.000000
vt 0.625000 0.500000
vt 0.593750 1.000000
vt 0.593750 0.500000
vt 0.562500 1.000000
vt 0.562500 0.500000
vt 0.531250 1.000000
vt 0.531250 0.500000
vt 0.500000 1.000000
vt 0.500000 0.500000
vt 0.468750 1.000000
vt 0.468750 0.500000
vt 0.437500 1.000000
vt 0.437500 0.500000
vt 0.406250 1.000000
vt 0.406250 0.500000
vt 0.375000 1.000000
vt 0.375000 0.500000
vt 0.343750 1.000000
vt 0.343750 0.500000
vt 0.312500 1.000000
vt 0.312500 0.500000
vt 0.281250 1.000000
vt 0.281250 0.500000
vt 0.250000 1.000000
vt 0.250000 0.500000
vt 0.218750 1.000000
vt 0.218750 0.500000
vt 0.187500 1.000000
vt 0.187500 0.500000
vt 0.156250 1.000000
vt 0.156250 0.500000
vt 0.125000 1.000000
vt 0.125000 0.500000
vt 0.093750 1.000000
vt 0.093750 0.500000
vt 0.062500 1.000000
vt 0.062500 0.500000
vt 0.296822 0.485388
vt 0.250000 0.490000
vt 0.203178 0.485388
vt 0.158156 0.471731
vt 0.116663 0.449553
vt 0.080294 0.419706
vt 0.050447 0.383337
vt 0.028269 0.341844
vt 0.014612 0.296822
vt 0.010000 0.250000
vt 0.014612 0.203178
vt 0.028269 0.158156
vt 0.050447 0.116663
vt 0.080294 0.080294
vt 0.116663 0.050447
vt 0.158156 0.028269
vt 0.203178 0.014612
vt 0.250000 0.010000
vt 0.296822 0.014612
vt 0.341844 0.028269
vt 0.383337 0.050447
vt 0.419706 0.080294
vt 0.449553 0.116663
vt 0.471731 0.158156
vt 0.485388 0.203178
vt 0.490000 0.250000
vt 0.485388 0.296822
vt 0.471731 0.341844
vt 0.449553 0.383337
vt 0.419706 0.419706
vt 0.383337 0.449553
vt 0.341844 0.471731
vt 0.031250 1.000000
vt 0.031250 0.500000
vt 0.000000 1.000000
vt 0.000000 0.500000
vt 0.750000 0.490000
vt 0.796822 0.485388
vt 0.841844 0.471731
vt 0.883337 0.449553
vt 0.919706 0.419706
vt 0.949553 0.383337
vt 0.971731 0.341844
vt 0.985388 0.296822
vt 0.990000 0.250000
vt 0.985388 0.203178
vt 0.971731 0.158156
vt 0.949553 0.116663
vt 0.919706 0.080294
vt 0.883337 0.050447
vt 0.841844 0.028269
vt 0.796822 0.014612
vt 0.750000 0.010000
vt 0.703178 0.014612
vt 0.658156 0.028269
vt 0.616663 0.050447
vt 0.580294 0.080294
vt 0.550447 0.116663
vt 0.528269 0.158156
vt 0.514612 0.203178
vt 0.510000 0.250000
vt 0.514612 0.296822
vt 0.528269 0.341844
vt 0.550447 0.383337
vt 0.580294 0.419706
vt 0.616663 0.449553
vt 0.658156 0.471731
vt 0.703178 0.485388
s 0
f 297/428/93 298/429/93 300/430/93 299/431/93
f 299/431/94 300/430/94 302/432/94 301/433/94
f 301/433/95 302/432/95 304/434/95 303/435/95
f 303/435/96 304/434/96 306/436/96 305/437/96
f 305/437/97 306/436/97 308/438/97 307/439/97
f 307/439/98 308/438/98 310/440/98 309/441/98
f 309/441/99 310/440/99 312/442/99 311/443/99
f 311/443/100 312/442/100 314/444/100 313/445/100
f 313/445/101 314/444/101 316/446/101 315/447/101
f 315/447/102 316/446/102 318/448/102 317/449/102
f 317/449/103 318/448/103 320/450/103 319/451/103
f 319/451/104 320/450/104 322/452/104 321/453/104
f 321/453/105 322/452/105 324/454/105 323/455/105
f 323/455/106 324/454/106 326/456/106 325/457/106
f 325/457/107 326/456/107 328/458/107 327/459/107
f 327/459/108 328/458/108 330/460/108 329/461/108
f 329/461/109 330/460/109 332/462/109 331/463/109
f 331/463/110 332/462/110 334/464/110 333/465/110
f 333/465/111 334/464/111 336/466/111 335/467/111
f 335/467/112 336/466/112 338/468/112 337/469/112
f 337/469/113 338/468/113 340/470/113 339/471/113
f 339/471/114 340/470/114 342/472/114 341/473/114
f 341/473/115 342/472/115 344/474/115 343/475/115
f 343/475/116 344/474/116 346/476/116 345/477/116
f 345/477/117 346/476/117 348/478/117 347/479/117
f 347/479/118 348/478/118 350/480/118 349/481/118
f 349/481/119 350/480/119 352/482/119 351/483/119
f 351/483/120 352/482/120 354/484/120 353/485/120
f 353/485/121 354/484/121 356/486/121 355/487/121
f 355/487/122 356/486/122 358/488/122 357/489/122
f 300/490/123 298/491/123 360/492/123 358/493/123 356/494/123 354/495/123 352/496/123 350/497/123 348/498/123 346/499/123 344/500/123 342/501/123 340/502/123 338/503/123 336/504/123 334/505/123 332/506/123 330/507/123 328/508/123 326/509/123 324/510/123 322/511/123 320/512/123 318/513/123 316/514/123 314/515/123 312/516/123 310/517/123 308/518/123 306/519/123 304/520/123 302/521/123
f 357/489/124 358/488/124 360/522/124 359/523/124
f 359/523/125 360/522/125 298/524/125 297/525/125
f 297/526/126 299/527/126 301/528/126 303/529/126 305/530/126 307/531/126 309/532/126 311/533/126 313/534/126 315/535/126 317/536/126 319/537/126 321/538/126 323/539/126 325/540/126 327/541/126 329/542/126 331/543/126 333/544/126 335/545/126 337/546/126 339/547/126 341/548/126 343/549/126 345/550/126 347/551/126 349/552/126 351/553/126 353/554/126 355/555/126 357/556/126 359/557/126
f 361/428/93 362/429/93 364/430/93 363/431/93
f 363/431/94 364/430/94 366/432/94 365/433/94
f 365/433/95 366/432/95 368/434/95 367/435/95
f 367/435/96 368/434/96 370/436/96 369/437/96
f 369/437/97 370/436/97 372/438/97 371/439/97
f 371/439/98 372/438/98 374/440/98 373/441/98
f 373/441/99 374/440/99 376/442/99 375/443/99
f 375/443/100 376/442/100 378/444/100 377/445/100
f 377/445/101 378/444/101 380/446/101 379/447/101
f 379/447/102 380/446/102 382/448/102 381/449/102
f 381/449/103 382/448/103 384/450/103 383/451/103
f 383/451/104 384/450/104 386/452/104 385/453/104
f 385/453/105 386/452/105 388/454/105 387/455/105
f 387/455/106 388/454/106 390/456/106 389/457/106
f 389/457/107 390/456/107 392/458/107 391/459/107
f 391/459/108 392/458/108 394/460/108 393/461/108
f 393/461/109 394/460/109 396/462/109 395/463/109
f 395/463/110 396/462/110 398/464/110 397/465/110
f 397/465/111 398/464/111 400/466/111 399/467/111
f 399/467/112 400/466/112 402/468/112 401/469/112
f 401/469/113 402/468/113 404/470/113 403/471/113
f 403/471/114 404/470/114 406/472/114 405/473/114
f 405/473/115 406/472/115 408/474/115 407/475/115
f 407/475/116 408/474/116 410/476/116 409/477/116
f 409/477/117 410/476/117 412/478/117 411/479/117
f 411/479/118 412/478/118 414/480/118 413/481/118
f 413/481/119 414/480/119 416/482/119 415/483/119
f 415/483/120 416/482/120 418/484/120 417/485/120
f 417/485/121 418/484/121 420/486/121 419/487/121
f 419/487/122 420/486/122 422/488/122 421/489/122
f 364/490/123 362/491/123 424/492/123 422/493/123 420/494/123 418/495/123 416/496/123 414/497/123 412/498/123 410/499/123 408/500/123 406/501/123 404/502/123 402/503/123 400/504/123 398/505/123 396/506/123 394/507/123 392/508/123 390/509/123 388/510/123 386/511/123 384/512/123 382/513/123 380/514/123 378/515/123 376/516/123 374/517/123 372/518/123 370/519/123 368/520/123 366/521/123
f 421/489/124 422/488/124 424/522/124 423/523/124
f 423/523/125 424/522/125 362/524/125 361/525/125
f 361/526/126 363/527/126 365/528/126 367/529/126 369/530/126 371/531/126 373/532/126 375/533/126 377/534/126 379/535/126 381/536/126 383/537/126 385/538/126 387/539/126 389/540/126 391/541/126 393/542/126 395/543/126 397/544/126 399/545/126 401/546/126 403/547/126 405/548/126 407/549/126 409/550/126 411/551/126 413/552/126 415/553/126 417/554/126 419/555/126 421/556/126 423/557/126
o Cylinder.003
v -1.765599 -1.950539 -4.626564
v -1.764609 -1.949423 -3.931966
v -1.833358 -1.943907 -4.626478
v -1.832368 -1.942791 -3.931880
v -1.898521 -1.924184 -4.626417
v -1.897531 -1.923068 -3.931819
v -1.958584 -1.892127 -4.626382
v -1.957594 -1.891011 -3.931785
v -2.011240 -1.848968 -4.626377
v -2.010249 -1.847852 -3.931779
v -2.054463 -1.796366 -4.626400
v -2.053473 -1.795250 -3.931802
v -2.086594 -1.736343 -4.626451
v -2.085604 -1.735226 -3.931852
v -2.106398 -1.671204 -4.626527
v -2.105407 -1.670088 -3.931929
v -2.113113 -1.603453 -4.626626
v -2.112122 -1.602337 -3.932028
v -2.106481 -1.535694 -4.626744
v -2.105491 -1.534578 -3.932147
v -2.086758 -1.470531 -4.626877
v -2.085768 -1.469415 -3.932279
v -2.054701 -1.410468 -4.627019
v -2.053711 -1.409352 -3.932422
v -2.011543 -1.357813 -4.627166
v -2.010552 -1.356697 -3.932568
v -1.958941 -1.314590 -4.627310
v -1.957950 -1.313473 -3.932712
v -1.898917 -1.282459 -4.627447
v -1.897927 -1.281343 -3.932849
v -1.833778 -1.262655 -4.627572
v -1.832788 -1.261539 -3.932974
v -1.766028 -1.255940 -4.627679
v -1.765037 -1.254824 -3.933081
v -1.698269 -1.262572 -4.627765
v -1.697278 -1.261456 -3.933167
v -1.633106 -1.282295 -4.627827
v -1.632115 -1.281179 -3.933228
v -1.573042 -1.314352 -4.627861
v -1.572052 -1.313236 -3.933263
v -1.520387 -1.357511 -4.627866
v -1.519397 -1.356395 -3.933269
v -1.477164 -1.410113 -4.627843
v -1.476173 -1.408997 -3.933246
v -1.445033 -1.470137 -4.627793
v -1.444042 -1.469021 -3.933195
v -1.425229 -1.535276 -4.627717
v -1.424239 -1.534159 -3.933119
v -1.418514 -1.603026 -4.627617
v -1.417524 -1.601910 -3.933019
v -1.425146 -1.670785 -4.627499
v -1.424155 -1.669669 -3.932901
v -1.444869 -1.735948 -4.627366
v -1.443878 -1.734832 -3.932768
v -1.476925 -1.796011 -4.627223
v -1.475935 -1.794895 -3.932626
v -1.520084 -1.848666 -4.627078
v -1.519094 -1.847550 -3.932480
v -1.572686 -1.891890 -4.626933
v -1.571696 -1.890774 -3.932335
v -1.632710 -1.924021 -4.626796
v -1.631719 -1.922904 -3.932198
v -1.697848 -1.943824 -4.626671
v -1.696858 -1.942708 -3.932073
v -1.068099 -1.905592 -4.581761
v -1.067237 -1.904620 -3.976912
v -1.127103 -1.899817 -4.581686
v -1.126241 -1.898846 -3.976838
v -1.183847 -1.882643 -4.581634
v -1.182984 -1.881671 -3.976784
v -1.236149 -1.854728 -4.581604
v -1.235287 -1.853756 -3.976755
v -1.282001 -1.817146 -4.581599
v -1.281139 -1.816174 -3.976750
v -1.319640 -1.771340 -4.581619
v -1.318777 -1.770368 -3.976770
v -1.347619 -1.719072 -4.581663
v -1.346756 -1.718100 -3.976814
v -1.364864 -1.662350 -4.581729
v -1.364001 -1.661378 -3.976880
v -1.370711 -1.603354 -4.581816
v -1.369849 -1.602382 -3.976967
v -1.364936 -1.544350 -4.581919
v -1.364074 -1.543378 -3.977070
v -1.347762 -1.487606 -4.582035
v -1.346899 -1.486634 -3.977185
v -1.319847 -1.435304 -4.582158
v -1.318985 -1.434332 -3.977309
v -1.282265 -1.389452 -4.582285
v -1.281402 -1.388481 -3.977437
v -1.236460 -1.351814 -4.582411
v -1.235597 -1.350842 -3.977562
v -1.184192 -1.323835 -4.582531
v -1.183329 -1.322863 -3.977682
v -1.127469 -1.306590 -4.582639
v -1.126607 -1.305618 -3.977790
v -1.068473 -1.300743 -4.582733
v -1.067611 -1.299771 -3.977884
v -1.009469 -1.306518 -4.582808
v -1.008607 -1.305546 -3.977959
v -0.952726 -1.323692 -4.582861
v -0.951863 -1.322721 -3.978012
v -0.900423 -1.351607 -4.582891
v -0.899561 -1.350635 -3.978042
v -0.854571 -1.389189 -4.582896
v -0.853709 -1.388218 -3.978047
v -0.816933 -1.434995 -4.582876
v -0.816070 -1.434023 -3.978027
v -0.788953 -1.487263 -4.582832
v -0.788091 -1.486291 -3.977983
v -0.771709 -1.543985 -4.582765
v -0.770846 -1.543013 -3.977916
v -0.765861 -1.602982 -4.582679
v -0.764999 -1.602010 -3.977830
v -0.771636 -1.661985 -4.582576
v -0.770774 -1.661013 -3.977727
v -0.788811 -1.718729 -4.582460
v -0.787948 -1.717757 -3.977611
v -0.816725 -1.771031 -4.582336
v -0.815863 -1.770059 -3.977487
v -0.854308 -1.816883 -4.582209
v -0.853445 -1.815911 -3.977360
v -0.900113 -1.854521 -4.582083
v -0.899250 -1.853549 -3.977234
v -0.952381 -1.882500 -4.581964
v -0.951518 -1.881528 -3.977115
v -1.009103 -1.899745 -4.581855
v -1.008241 -1.898773 -3.977006
vn -0.0974 -0.9952 0.0017
vn -0.2897 -0.9571 0.0020
vn -0.4709 -0.8822 0.0021
vn -0.6339 -0.7734 0.0021
vn -0.7726 -0.6349 0.0021
vn -0.8816 -0.4719 0.0020
vn -0.9568 -0.2909 0.0018
vn -0.9951 -0.0986 0.0016
vn -0.9952 0.0974 0.0013
vn -0.9571 0.2897 0.0009
vn -0.8822 0.4709 0.0005
vn -0.7734 0.6339 0.0001
vn -0.6349 0.7726 -0.0003
vn -0.4719 0.8816 -0.0007
vn -0.2909 0.9568 -0.0011
vn -0.0986 0.9951 -0.0015
vn 0.0974 0.9952 -0.0017
vn 0.2897 0.9571 -0.0020
vn 0.4709 0.8822 -0.0021
vn 0.6339 0.7734 -0.0021
vn 0.7726 0.6349 -0.0021
vn 0.8816 0.4719 -0.0020
vn 0.9568 0.2909 -0.0018
vn 0.9951 0.0986 -0.0016
vn 0.9952 -0.0974 -0.0013
vn 0.9571 -0.2897 -0.0009
vn 0.8822 -0.4709 -0.0005
vn 0.7734 -0.6339 -0.0001
vn 0.6349 -0.7726 0.0003
vn 0.4719 -0.8816 0.0007
vn 0.0014 0.0016 1.0000
vn 0.2909 -0.9568 0.0011
vn 0.0986 -0.9951 0.0015
vn -0.0014 -0.0016 -1.0000
vt 1.000000 0.500000
vt 1.000000 1.000000
vt 0.968750 1.000000
vt 0.968750 0.500000
vt 0.937500 1.000000
vt 0.937500 0.500000
vt 0.906250 1.000000
vt 0.906250 0.500000
vt 0.875000 1.000000
vt 0.875000 0.500000
vt 0.843750 1.000000
vt 0.843750 0.500000
vt 0.812500 1.000000
vt 0.812500 0.500000
vt 0.781250 1.000000
vt 0.781250 0.500000
vt 0.750000 1.000000
vt 0.750000 0.500000
vt 0.718750 1.000000
vt 0.718750 0.500000
vt 0.687500 1.000000
vt 0.687500 0.500000
vt 0.656250 1.000000
vt 0.656250 0.500000
vt 0.625000 1.000000
vt 0.625000 0.500000
vt 0.593750 1.000000
vt 0.593750 0.500000
vt 0.562500 1.000000
vt 0.562500 0.500000
vt 0.531250 1.000000
vt 0.531250 0.500000
vt 0.500000 1.000000
vt 0.500000 0.500000
vt 0.468750 1.000000
vt 0.468750 0.500000
vt 0.437500 1.000000
vt 0.437500 0.500000
vt 0.406250 1.000000
vt 0.406250 0.500000
vt 0.375000 1.000000
vt 0.375000 0.500000
vt 0.343750 1.000000
vt 0.343750 0.500000
vt 0.312500 1.000000
vt 0.312500 0.500000
vt 0.281250 1.000000
vt 0.281250 0.500000
vt 0.250000 1.000000
vt 0.250000 0.500000
vt 0.218750 1.000000
vt 0.218750 0.500000
vt 0.187500 1.000000
vt 0.187500 0.500000
vt 0.156250 1.000000
vt 0.156250 0.500000
vt 0.125000 1.000000
vt 0.125000 0.500000
vt 0.093750 1.000000
vt 0.093750 0.500000
vt 0.062500 1.000000
vt 0.062500 0.500000
vt 0.296822 0.485388
vt 0.250000 0.490000
vt 0.203178 0.485388
vt 0.158156 0.471731
vt 0.116663 0.449553
vt 0.080294 0.419706
vt 0.050447 0.383337
vt 0.028269 0.341844
vt 0.014612 0.296822
vt 0.010000 0.250000
vt 0.014612 0.203178
vt 0.028269 0.158156
vt 0.050447 0.116663
vt 0.080294 0.080294
vt 0.116663 0.050447
vt 0.158156 0.028269
vt 0.203178 0.014612
vt 0.250000 0.010000
vt 0.296822 0.014612
vt 0.341844 0.028269
vt 0.383337 0.050447
vt 0.419706 0.080294
vt 0.449553 0.116663
vt 0.471731 0.158156
vt 0.485388 0.203178
vt 0.490000 0.250000
vt 0.485388 0.296822
vt 0.471731 0.341844
vt 0.449553 0.383337
vt 0.419706 0.419706
vt 0.383337 0.449553
vt 0.341844 0.471731
vt 0.031250 1.000000
vt 0.031250 0.500000
vt 0.000000 1.000000
vt 0.000000 0.500000
vt 0.750000 0.490000
vt 0.796822 0.485388
vt 0.841844 0.471731
vt 0.883337 0.449553
vt 0.919706 0.419706
vt 0.949553 0.383337
vt 0.971731 0.341844
vt 0.985388 0.296822
vt 0.990000 0.250000
vt 0.985388 0.203178
vt 0.971731 0.158156
vt 0.949553 0.116663
vt 0.919706 0.080294
vt 0.883337 0.050447
vt 0.841844 0.028269
vt 0.796822 0.014612
vt 0.750000 0.010000
vt 0.703178 0.014612
vt 0.658156 0.028269
vt 0.616663 0.050447
vt 0.580294 0.080294
vt 0.550447 0.116663
vt 0.528269 0.158156
vt 0.514612 0.203178
vt 0.510000 0.250000
vt 0.514612 0.296822
vt 0.528269 0.341844
vt 0.550447 0.383337
vt 0.580294 0.419706
vt 0.616663 0.449553
vt 0.658156 0.471731
vt 0.703178 0.485388
s 0
f 425/558/127 426/559/127 428/560/127 427/561/127
f 427/561/128 428/560/128 430/562/128 429/563/128
f 429/563/129 430/562/129 432/564/129 431/565/129
f 431/565/130 432/564/130 434/566/130 433/567/130
f 433/567/131 434/566/131 436/568/131 435/569/131
f 435/569/132 436/568/132 438/570/132 437/571/132
f 437/571/133 438/570/133 440/572/133 439/573/133
f 439/573/134 440/572/134 442/574/134 441/575/134
f 441/575/135 442/574/135 444/576/135 443/577/135
f 443/577/136 444/576/136 446/578/136 445/579/136
f 445/579/137 446/578/137 448/580/137 447/581/137
f 447/581/138 448/580/138 450/582/138 449/583/138
f 449/583/139 450/582/139 452/584/139 451/585/139
f 451/585/140 452/584/140 454/586/140 453/587/140
f 453/587/141 454/586/141 456/588/141 455/589/141
f 455/589/142 456/588/142 458/590/142 457/591/142
f 457/591/143 458/590/143 460/592/143 459/593/143
f 459/593/144 460/592/144 462/594/144 461/595/144
f 461/595/145 462/594/145 464/596/145 463/597/145
f 463/597/146 464/596/146 466/598/146 465/599/146
f 465/599/147 466/598/147 468/600/147 467/601/147
f 467/601/148 468/600/148 470/602/148 469/603/148
f 469/603/149 470/602/149 472/604/149 471/605/149
f 471/605/150 472/604/150 474/606/150 473/607/150
f 473/607/151 474/606/151 476/608/151 475/609/151
f 475/609/152 476/608/152 478/610/152 477/611/152
f 477/611/153 478/610/153 480/612/153 479/613/153
f 479/613/154 480/612/154 482/614/154 481/615/154
f 481/615/155 482/614/155 484/616/155 483/617/155
f 483/617/156 484/616/156 486/618/156 485/619/156
f 428/620/157 426/621/157 488/622/157 486/623/157 484/624/157 482/625/157 480/626/157 478/627/157 476/628/157 474/629/157 472/630/157 470/631/157 468/632/157 466/633/157 464/634/157 462/635/157 460/636/157 458/637/157 456/638/157 454/639/157 452/640/157 450/641/157 448/642/157 446/643/157 444/644/157 442/645/157 440/646/157 438/647/157 436/648/157 434/649/157 432/650/157 430/651/157
f 485/619/158 486/618/158 488/652/158 487/653/158
f 487/653/159 488/652/159 426/654/159 425/655/159
f 425/656/160 427/657/160 429/658/160 431/659/160 433/660/160 435/661/160 437/662/160 439/663/160 441/664/160 443/665/160 445/666/160 447/667/160 449/668/160 451/669/160 453/670/160 455/671/160 457/672/160 459/673/160 461/674/160 463/675/160 465/676/160 467/677/160 469/678/160 471/679/160 473/680/160 475/681/160 477/682/160 479/683/160 481/684/160 483/685/160 485/686/160 487/687/160
f 489/558/127 490/559/127 492/560/127 491/561/127
f 491/561/128 492/560/128 494/562/128 493/563/128
f 493/563/129 494/562/129 496/564/129 495/565/129
f 495/565/130 496/564/130 498/566/130 497/567/130
f 497/567/131 498/566/131 500/568/131 499/569/131
f 499/569/132 500/568/132 502/570/132 501/571/132
f 501/571/133 502/570/133 504/572/133 503/573/133
f 503/573/134 504/572/134 506/574/134 505/575/134
f 505/575/135 506/574/135 508/576/135 507/577/135
f 507/577/136 508/576/136 510/578/136 509/579/136
f 509/579/137 510/578/137 512/580/137 511/581/137
f 511/581/138 512/580/138 514/582/138 513/583/138
f 513/583/139 514/582/139 516/584/139 515/585/139
f 515/585/140 516/584/140 518/586/140 517/587/140
f 517/587/141 518/586/141 520/588/141 519/589/141
f 519/589/142 520/588/142 522/590/142 521/591/142
f 521/591/143 522/590/143 524/592/143 523/593/143
f 523/593/144 524/592/144 526/594/144 525/595/144
f 525/595/145 526/594/145 528/596/145 527/597/145
f 527/597/146 528/596/146 530/598/146 529/599/146
f 529/599/147 530/598/147 532/600/147 531/601/147
f 531/601/148 532/600/148 534/602/148 533/603/148
f 533/603/149 534/602/149 536/604/149 535/605/149
f 535/605/150 536/604/150 538/606/150 537/607/150
f 537/607/151 538/606/151 540/608/151 539/609/151
f 539/609/152 540/608/152 542/610/152 541/611/152
f 541/611/153 542/610/153 544/612/153 543/613/153
f 543/613/154 544/612/154 546/614/154 545/615/154
f 545/615/155 546/614/155 548/616/155 547/617/155
f 547/617/156 548/616/156 550/618/156 549/619/156
f 492/620/157 490/621/157 552/622/157 550/623/157 548/624/157 546/625/157 544/626/157 542/627/157 540/628/157 538/629/157 536/630/157 534/631/157 532/632/157 530/633/157 528/634/157 526/635/157 524/636/157 522/637/157 520/638/157 518/639/157 516/640/157 514/641/157 512/642/157 510/643/157 508/644/157 506/645/157 504/646/157 502/647/157 500/648/157 498/649/157 496/650/157 494/651/157
f 549/619/158 550/618/158 552/652/158 551/653/158
f 551/653/159 552/652/159 490/654/159 489/655/159
f 489/656/160 491/657/160 493/658/160 495/659/160 497/660/160 499/661/160 501/662/160 503/663/160 505/664/160 507/665/160 509/666/160 511/667/160 513/668/160 515/669/160 517/670/160 519/671/160 521/672/160 523/673/160 525/674/160 527/675/160 529/676/160 531/677/160 533/678/160 535/679/160 537/680/160 539/681/160 541/682/160 543/683/160 545/684/160 547/685/160 549/686/160 551/687/160
o Cube.012
v -1.000000 -1.325007 -5.061944
v -0.670905 -0.539169 -5.120800
v -1.000000 -1.143798 -7.053719
v -0.670905 -0.381484 -6.854014
v 1.000000 -1.325007 -5.061944
v 0.670905 -0.539169 -5.120800
v 1.000000 -1.143798 -7.053719
v 0.670905 -0.381484 -6.854014
vn -0.9209 0.3883 0.0353
vn -0.0000 0.2534 -0.9674
vn 0.9209 0.3883 0.0353
vn -0.0000 0.0747 0.9972
vn -0.0000 -0.9959 -0.0906
vn -0.0000 0.9959 0.0906
vt 0.375000 0.000000
vt 0.625000 0.000000
vt 0.625000 0.250000
vt 0.375000 0.250000
vt 0.625000 0.500000
vt 0.375000 0.500000
vt 0.625000 0.750000
vt 0.375000 0.750000
vt 0.625000 1.000000
vt 0.375000 1.000000
vt 0.125000 0.500000
vt 0.125000 0.750000
vt 0.875000 0.500000
vt 0.875000 0.750000
s 0
f 553/688/161 554/689/161 556/690/161 555/691/161
f 555/691/162 556/690/162 560/692/162 559/693/162
f 559/693/163 560/692/163 558/694/163 557/695/163
f 557/695/164 558/694/164 554/696/164 553/697/164
f 555/698/165 559/693/165 557/695/165 553/699/165
f 560/692/166 556/700/166 554/701/166 558/694/166
